<mxfile host="app.diagrams.net" agent="Mozilla/5.0 (Windows NT 10.0; Win64; x64) AppleWebKit/537.36 (KHTML, like Gecko) Chrome/134.0.0.0 Safari/537.36 Edg/134.0.0.0" version="26.1.1">
  <diagram name="Страница — 1" id="aea9yDtdAbto8463GYZD">
    <mxGraphModel dx="1042" dy="565" grid="1" gridSize="10" guides="1" tooltips="1" connect="1" arrows="1" fold="1" page="1" pageScale="1" pageWidth="827" pageHeight="1169" math="0" shadow="0">
      <root>
        <mxCell id="0" />
        <mxCell id="1" parent="0" />
        <mxCell id="mTG9skYAL2B_K5ZJfO_x-1" value="Процесс редатирования личного кабинета" style="swimlane;html=1;startSize=20;fontStyle=0;collapsible=0;horizontal=1;swimlaneLine=1;strokeWidth=2;swimlaneFillColor=#ffffff;whiteSpace=wrap;" vertex="1" parent="1">
          <mxGeometry x="30" y="130" width="890" height="200" as="geometry" />
        </mxCell>
        <mxCell id="mTG9skYAL2B_K5ZJfO_x-2" value="Пользователь" style="swimlane;html=1;startSize=20;fontStyle=0;collapsible=0;horizontal=0;swimlaneLine=1;swimlaneFillColor=#ffffff;strokeWidth=2;whiteSpace=wrap;" vertex="1" parent="mTG9skYAL2B_K5ZJfO_x-1">
          <mxGeometry y="20" width="890" height="140" as="geometry" />
        </mxCell>
        <mxCell id="mTG9skYAL2B_K5ZJfO_x-3" value="" style="points=[[0.145,0.145,0],[0.5,0,0],[0.855,0.145,0],[1,0.5,0],[0.855,0.855,0],[0.5,1,0],[0.145,0.855,0],[0,0.5,0]];shape=mxgraph.bpmn.event;html=1;verticalLabelPosition=bottom;labelBackgroundColor=#ffffff;verticalAlign=top;align=center;perimeter=ellipsePerimeter;outlineConnect=0;aspect=fixed;outline=standard;symbol=general;" vertex="1" parent="mTG9skYAL2B_K5ZJfO_x-2">
          <mxGeometry x="50" y="55" width="30" height="30" as="geometry" />
        </mxCell>
        <mxCell id="mTG9skYAL2B_K5ZJfO_x-4" value="Редактировать личный кабинет" style="text;html=1;align=center;verticalAlign=middle;whiteSpace=wrap;rounded=0;" vertex="1" parent="mTG9skYAL2B_K5ZJfO_x-2">
          <mxGeometry x="35" y="94" width="60" height="30" as="geometry" />
        </mxCell>
        <mxCell id="mTG9skYAL2B_K5ZJfO_x-5" value="Ввести новые данные" style="points=[[0.25,0,0],[0.5,0,0],[0.75,0,0],[1,0.25,0],[1,0.5,0],[1,0.75,0],[0.75,1,0],[0.5,1,0],[0.25,1,0],[0,0.75,0],[0,0.5,0],[0,0.25,0]];shape=mxgraph.bpmn.task2;whiteSpace=wrap;rectStyle=rounded;size=10;html=1;container=1;expand=0;collapsible=0;taskMarker=abstract;" vertex="1" parent="mTG9skYAL2B_K5ZJfO_x-2">
          <mxGeometry x="120" y="45" width="100" height="50" as="geometry" />
        </mxCell>
        <mxCell id="mTG9skYAL2B_K5ZJfO_x-6" value="" style="points=[[0.25,0.25,0],[0.5,0,0],[0.75,0.25,0],[1,0.5,0],[0.75,0.75,0],[0.5,1,0],[0.25,0.75,0],[0,0.5,0]];shape=mxgraph.bpmn.gateway2;html=1;verticalLabelPosition=bottom;labelBackgroundColor=#ffffff;verticalAlign=top;align=center;perimeter=rhombusPerimeter;outlineConnect=0;outline=none;symbol=none;gwType=exclusive;" vertex="1" parent="mTG9skYAL2B_K5ZJfO_x-2">
          <mxGeometry x="250" y="55" width="30" height="30" as="geometry" />
        </mxCell>
        <mxCell id="mTG9skYAL2B_K5ZJfO_x-11" value="" style="points=[[0.145,0.145,0],[0.5,0,0],[0.855,0.145,0],[1,0.5,0],[0.855,0.855,0],[0.5,1,0],[0.145,0.855,0],[0,0.5,0]];shape=mxgraph.bpmn.event;html=1;verticalLabelPosition=bottom;labelBackgroundColor=#ffffff;verticalAlign=top;align=center;perimeter=ellipsePerimeter;outlineConnect=0;aspect=fixed;outline=end;symbol=terminate;" vertex="1" parent="mTG9skYAL2B_K5ZJfO_x-2">
          <mxGeometry x="369" y="55" width="30" height="30" as="geometry" />
        </mxCell>
        <mxCell id="mTG9skYAL2B_K5ZJfO_x-12" value="" style="edgeStyle=elbowEdgeStyle;fontSize=12;html=1;endArrow=blockThin;endFill=1;rounded=0;exitX=1;exitY=0.5;exitDx=0;exitDy=0;exitPerimeter=0;entryX=0;entryY=0.5;entryDx=0;entryDy=0;entryPerimeter=0;" edge="1" parent="mTG9skYAL2B_K5ZJfO_x-2" source="mTG9skYAL2B_K5ZJfO_x-3" target="mTG9skYAL2B_K5ZJfO_x-5">
          <mxGeometry width="160" relative="1" as="geometry">
            <mxPoint x="330" y="150" as="sourcePoint" />
            <mxPoint x="490" y="150" as="targetPoint" />
          </mxGeometry>
        </mxCell>
        <mxCell id="mTG9skYAL2B_K5ZJfO_x-21" value="Да" style="text;html=1;strokeColor=none;fillColor=none;align=center;verticalAlign=middle;whiteSpace=wrap;rounded=0;" vertex="1" parent="mTG9skYAL2B_K5ZJfO_x-2">
          <mxGeometry x="250" y="45" width="80" height="30" as="geometry" />
        </mxCell>
        <mxCell id="mTG9skYAL2B_K5ZJfO_x-22" value="Нет" style="text;html=1;strokeColor=none;fillColor=none;align=center;verticalAlign=middle;whiteSpace=wrap;rounded=0;" vertex="1" parent="mTG9skYAL2B_K5ZJfO_x-2">
          <mxGeometry x="210" y="75" width="80" height="30" as="geometry" />
        </mxCell>
        <mxCell id="mTG9skYAL2B_K5ZJfO_x-57" value="Данные верны?" style="text;html=1;align=center;verticalAlign=middle;whiteSpace=wrap;rounded=0;" vertex="1" parent="mTG9skYAL2B_K5ZJfO_x-2">
          <mxGeometry x="235" y="19" width="60" height="30" as="geometry" />
        </mxCell>
        <mxCell id="mTG9skYAL2B_K5ZJfO_x-25" value="Сервер" style="swimlane;html=1;startSize=20;fontStyle=0;collapsible=0;horizontal=0;swimlaneLine=1;swimlaneFillColor=#ffffff;strokeWidth=2;whiteSpace=wrap;" vertex="1" parent="1">
          <mxGeometry x="30" y="290" width="890" height="160" as="geometry" />
        </mxCell>
        <mxCell id="mTG9skYAL2B_K5ZJfO_x-26" value="Проверить данные" style="points=[[0.25,0,0],[0.5,0,0],[0.75,0,0],[1,0.25,0],[1,0.5,0],[1,0.75,0],[0.75,1,0],[0.5,1,0],[0.25,1,0],[0,0.75,0],[0,0.5,0],[0,0.25,0]];shape=mxgraph.bpmn.task2;whiteSpace=wrap;rectStyle=rounded;size=10;html=1;container=1;expand=0;collapsible=0;taskMarker=abstract;" vertex="1" parent="mTG9skYAL2B_K5ZJfO_x-25">
          <mxGeometry x="605" y="56" width="90" height="50" as="geometry" />
        </mxCell>
        <mxCell id="mTG9skYAL2B_K5ZJfO_x-27" value="Запросить данные" style="points=[[0.25,0,0],[0.5,0,0],[0.75,0,0],[1,0.25,0],[1,0.5,0],[1,0.75,0],[0.75,1,0],[0.5,1,0],[0.25,1,0],[0,0.75,0],[0,0.5,0],[0,0.25,0]];shape=mxgraph.bpmn.task2;whiteSpace=wrap;rectStyle=rounded;size=10;html=1;container=1;expand=0;collapsible=0;taskMarker=abstract;" vertex="1" parent="mTG9skYAL2B_K5ZJfO_x-25">
          <mxGeometry x="319" y="56" width="90" height="50" as="geometry" />
        </mxCell>
        <mxCell id="mTG9skYAL2B_K5ZJfO_x-28" value="" style="points=[[0.145,0.145,0],[0.5,0,0],[0.855,0.145,0],[1,0.5,0],[0.855,0.855,0],[0.5,1,0],[0.145,0.855,0],[0,0.5,0]];shape=mxgraph.bpmn.event;html=1;verticalLabelPosition=bottom;labelBackgroundColor=#ffffff;verticalAlign=top;align=center;perimeter=ellipsePerimeter;outlineConnect=0;aspect=fixed;outline=throwing;symbol=message;" vertex="1" parent="mTG9skYAL2B_K5ZJfO_x-25">
          <mxGeometry x="444" y="66" width="30" height="30" as="geometry" />
        </mxCell>
        <mxCell id="mTG9skYAL2B_K5ZJfO_x-29" value="" style="points=[[0.145,0.145,0],[0.5,0,0],[0.855,0.145,0],[1,0.5,0],[0.855,0.855,0],[0.5,1,0],[0.145,0.855,0],[0,0.5,0]];shape=mxgraph.bpmn.event;html=1;verticalLabelPosition=bottom;labelBackgroundColor=#ffffff;verticalAlign=top;align=center;perimeter=ellipsePerimeter;outlineConnect=0;aspect=fixed;outline=catching;symbol=message;" vertex="1" parent="mTG9skYAL2B_K5ZJfO_x-25">
          <mxGeometry x="545" y="66" width="30" height="30" as="geometry" />
        </mxCell>
        <mxCell id="mTG9skYAL2B_K5ZJfO_x-30" value="Запрос на предоставление данных" style="text;html=1;align=center;verticalAlign=middle;whiteSpace=wrap;rounded=0;" vertex="1" parent="mTG9skYAL2B_K5ZJfO_x-25">
          <mxGeometry x="429" y="106" width="60" height="30" as="geometry" />
        </mxCell>
        <mxCell id="mTG9skYAL2B_K5ZJfO_x-31" value="Предоставлены данные" style="text;html=1;align=center;verticalAlign=middle;whiteSpace=wrap;rounded=0;" vertex="1" parent="mTG9skYAL2B_K5ZJfO_x-25">
          <mxGeometry x="530" y="106" width="60" height="30" as="geometry" />
        </mxCell>
        <mxCell id="mTG9skYAL2B_K5ZJfO_x-32" value="" style="points=[[0.145,0.145,0],[0.5,0,0],[0.855,0.145,0],[1,0.5,0],[0.855,0.855,0],[0.5,1,0],[0.145,0.855,0],[0,0.5,0]];shape=mxgraph.bpmn.event;html=1;verticalLabelPosition=bottom;labelBackgroundColor=#ffffff;verticalAlign=top;align=center;perimeter=ellipsePerimeter;outlineConnect=0;aspect=fixed;outline=end;symbol=terminate;" vertex="1" parent="mTG9skYAL2B_K5ZJfO_x-25">
          <mxGeometry x="773" y="37.25" width="30" height="30" as="geometry" />
        </mxCell>
        <mxCell id="mTG9skYAL2B_K5ZJfO_x-33" value="" style="points=[[0.25,0.25,0],[0.5,0,0],[0.75,0.25,0],[1,0.5,0],[0.75,0.75,0],[0.5,1,0],[0.25,0.75,0],[0,0.5,0]];shape=mxgraph.bpmn.gateway2;html=1;verticalLabelPosition=bottom;labelBackgroundColor=#ffffff;verticalAlign=top;align=center;perimeter=rhombusPerimeter;outlineConnect=0;outline=none;symbol=none;gwType=exclusive;" vertex="1" parent="mTG9skYAL2B_K5ZJfO_x-25">
          <mxGeometry x="719" y="38.5" width="27.5" height="27.5" as="geometry" />
        </mxCell>
        <mxCell id="mTG9skYAL2B_K5ZJfO_x-34" value="Данные верны?" style="text;html=1;align=center;verticalAlign=middle;whiteSpace=wrap;rounded=0;" vertex="1" parent="mTG9skYAL2B_K5ZJfO_x-25">
          <mxGeometry x="702.75" y="90" width="60" height="30" as="geometry" />
        </mxCell>
        <mxCell id="mTG9skYAL2B_K5ZJfO_x-35" value="" style="edgeStyle=elbowEdgeStyle;fontSize=12;html=1;endArrow=blockThin;endFill=1;rounded=0;exitX=1;exitY=0.5;exitDx=0;exitDy=0;exitPerimeter=0;entryX=0;entryY=0.5;entryDx=0;entryDy=0;entryPerimeter=0;" edge="1" parent="mTG9skYAL2B_K5ZJfO_x-25" source="mTG9skYAL2B_K5ZJfO_x-27" target="mTG9skYAL2B_K5ZJfO_x-28">
          <mxGeometry width="160" relative="1" as="geometry">
            <mxPoint x="429" y="51" as="sourcePoint" />
            <mxPoint x="589" y="51" as="targetPoint" />
          </mxGeometry>
        </mxCell>
        <mxCell id="mTG9skYAL2B_K5ZJfO_x-36" value="" style="edgeStyle=elbowEdgeStyle;fontSize=12;html=1;endArrow=blockThin;endFill=1;rounded=0;exitX=1;exitY=0.5;exitDx=0;exitDy=0;exitPerimeter=0;entryX=0;entryY=0.5;entryDx=0;entryDy=0;entryPerimeter=0;" edge="1" parent="mTG9skYAL2B_K5ZJfO_x-25" source="mTG9skYAL2B_K5ZJfO_x-28" target="mTG9skYAL2B_K5ZJfO_x-29">
          <mxGeometry width="160" relative="1" as="geometry">
            <mxPoint x="429" y="51" as="sourcePoint" />
            <mxPoint x="589" y="51" as="targetPoint" />
          </mxGeometry>
        </mxCell>
        <mxCell id="mTG9skYAL2B_K5ZJfO_x-37" value="" style="edgeStyle=elbowEdgeStyle;fontSize=12;html=1;endArrow=blockThin;endFill=1;rounded=0;exitX=1;exitY=0.5;exitDx=0;exitDy=0;exitPerimeter=0;entryX=0;entryY=0.5;entryDx=0;entryDy=0;entryPerimeter=0;" edge="1" parent="mTG9skYAL2B_K5ZJfO_x-25" source="mTG9skYAL2B_K5ZJfO_x-29" target="mTG9skYAL2B_K5ZJfO_x-26">
          <mxGeometry width="160" relative="1" as="geometry">
            <mxPoint x="429" y="51" as="sourcePoint" />
            <mxPoint x="589" y="51" as="targetPoint" />
          </mxGeometry>
        </mxCell>
        <mxCell id="mTG9skYAL2B_K5ZJfO_x-38" value="" style="edgeStyle=elbowEdgeStyle;fontSize=12;html=1;endArrow=blockThin;endFill=1;rounded=0;exitX=1;exitY=0.5;exitDx=0;exitDy=0;exitPerimeter=0;entryX=0.5;entryY=1;entryDx=0;entryDy=0;entryPerimeter=0;" edge="1" parent="mTG9skYAL2B_K5ZJfO_x-25" source="mTG9skYAL2B_K5ZJfO_x-26" target="mTG9skYAL2B_K5ZJfO_x-33">
          <mxGeometry width="160" relative="1" as="geometry">
            <mxPoint x="429" y="51" as="sourcePoint" />
            <mxPoint x="719" y="80.75" as="targetPoint" />
            <Array as="points">
              <mxPoint x="733" y="70" />
            </Array>
          </mxGeometry>
        </mxCell>
        <mxCell id="mTG9skYAL2B_K5ZJfO_x-39" value="" style="edgeStyle=elbowEdgeStyle;fontSize=12;html=1;endArrow=blockThin;endFill=1;rounded=0;exitX=1;exitY=0.5;exitDx=0;exitDy=0;exitPerimeter=0;entryX=0;entryY=0.5;entryDx=0;entryDy=0;entryPerimeter=0;" edge="1" parent="mTG9skYAL2B_K5ZJfO_x-25" source="mTG9skYAL2B_K5ZJfO_x-33" target="mTG9skYAL2B_K5ZJfO_x-32">
          <mxGeometry width="160" relative="1" as="geometry">
            <mxPoint x="529" y="60" as="sourcePoint" />
            <mxPoint x="689" y="60" as="targetPoint" />
          </mxGeometry>
        </mxCell>
        <mxCell id="mTG9skYAL2B_K5ZJfO_x-40" value="Да" style="text;html=1;strokeColor=none;fillColor=none;align=center;verticalAlign=middle;whiteSpace=wrap;rounded=0;" vertex="1" parent="mTG9skYAL2B_K5ZJfO_x-25">
          <mxGeometry x="711" y="46" width="80" height="30" as="geometry" />
        </mxCell>
        <mxCell id="mTG9skYAL2B_K5ZJfO_x-41" value="Нет" style="text;html=1;strokeColor=none;fillColor=none;align=center;verticalAlign=middle;whiteSpace=wrap;rounded=0;" vertex="1" parent="mTG9skYAL2B_K5ZJfO_x-25">
          <mxGeometry x="674.5" y="14" width="80" height="30" as="geometry" />
        </mxCell>
        <mxCell id="mTG9skYAL2B_K5ZJfO_x-42" value="" style="swimlane;html=1;startSize=20;fontStyle=0;collapsible=0;horizontal=0;swimlaneLine=0;fillColor=none;whiteSpace=wrap;" vertex="1" parent="1">
          <mxGeometry x="31" y="460" width="889" height="30" as="geometry" />
        </mxCell>
        <mxCell id="mTG9skYAL2B_K5ZJfO_x-43" value="База данных" style="text;html=1;align=center;verticalAlign=middle;resizable=0;points=[];autosize=1;strokeColor=none;fillColor=none;" vertex="1" parent="mTG9skYAL2B_K5ZJfO_x-42">
          <mxGeometry x="345" width="90" height="30" as="geometry" />
        </mxCell>
        <mxCell id="mTG9skYAL2B_K5ZJfO_x-44" value="" style="edgeStyle=elbowEdgeStyle;fontSize=12;html=1;endArrow=blockThin;endFill=1;rounded=0;exitX=1;exitY=0.5;exitDx=0;exitDy=0;exitPerimeter=0;" edge="1" parent="1" source="mTG9skYAL2B_K5ZJfO_x-5">
          <mxGeometry width="160" relative="1" as="geometry">
            <mxPoint x="360" y="300" as="sourcePoint" />
            <mxPoint x="280" y="220" as="targetPoint" />
          </mxGeometry>
        </mxCell>
        <mxCell id="mTG9skYAL2B_K5ZJfO_x-45" value="" style="edgeStyle=elbowEdgeStyle;fontSize=12;html=1;endArrow=blockThin;endFill=1;rounded=0;entryX=0;entryY=0.5;entryDx=0;entryDy=0;entryPerimeter=0;" edge="1" parent="1" target="mTG9skYAL2B_K5ZJfO_x-11">
          <mxGeometry width="160" relative="1" as="geometry">
            <mxPoint x="310" y="220" as="sourcePoint" />
            <mxPoint x="340" y="220" as="targetPoint" />
          </mxGeometry>
        </mxCell>
        <mxCell id="mTG9skYAL2B_K5ZJfO_x-46" value="" style="edgeStyle=elbowEdgeStyle;fontSize=12;html=1;endArrow=blockThin;endFill=1;rounded=0;exitX=0.5;exitY=1;exitDx=0;exitDy=0;exitPerimeter=0;entryX=0;entryY=0.5;entryDx=0;entryDy=0;entryPerimeter=0;" edge="1" parent="1" target="mTG9skYAL2B_K5ZJfO_x-27">
          <mxGeometry width="160" relative="1" as="geometry">
            <mxPoint x="295" y="236" as="sourcePoint" />
            <mxPoint x="480" y="301" as="targetPoint" />
            <Array as="points">
              <mxPoint x="295" y="331" />
            </Array>
          </mxGeometry>
        </mxCell>
        <mxCell id="mTG9skYAL2B_K5ZJfO_x-47" value="" style="edgeStyle=elbowEdgeStyle;fontSize=12;html=1;endArrow=blockThin;endFill=1;rounded=0;exitX=0.5;exitY=0;exitDx=0;exitDy=0;exitPerimeter=0;entryX=0.5;entryY=1;entryDx=0;entryDy=0;entryPerimeter=0;" edge="1" parent="1" source="mTG9skYAL2B_K5ZJfO_x-33" target="mTG9skYAL2B_K5ZJfO_x-6">
          <mxGeometry width="160" relative="1" as="geometry">
            <mxPoint x="400" y="310" as="sourcePoint" />
            <mxPoint x="560" y="310" as="targetPoint" />
            <Array as="points">
              <mxPoint x="320" y="280" />
            </Array>
          </mxGeometry>
        </mxCell>
        <mxCell id="mTG9skYAL2B_K5ZJfO_x-48" value="" style="dashed=1;dashPattern=8 4;endArrow=blockThin;endFill=1;startArrow=oval;startFill=0;endSize=6;startSize=4;html=1;rounded=0;exitX=0.5;exitY=1;exitDx=0;exitDy=0;exitPerimeter=0;" edge="1" parent="1" source="mTG9skYAL2B_K5ZJfO_x-28">
          <mxGeometry width="160" relative="1" as="geometry">
            <mxPoint x="490" y="390" as="sourcePoint" />
            <mxPoint x="490" y="460" as="targetPoint" />
          </mxGeometry>
        </mxCell>
        <mxCell id="mTG9skYAL2B_K5ZJfO_x-49" value="" style="dashed=1;dashPattern=8 4;endArrow=blockThin;endFill=1;startArrow=oval;startFill=0;endSize=6;startSize=4;html=1;rounded=0;entryX=0.5;entryY=1;entryDx=0;entryDy=0;entryPerimeter=0;" edge="1" parent="1" target="mTG9skYAL2B_K5ZJfO_x-29">
          <mxGeometry width="160" relative="1" as="geometry">
            <mxPoint x="590" y="460" as="sourcePoint" />
            <mxPoint x="570" y="380" as="targetPoint" />
          </mxGeometry>
        </mxCell>
      </root>
    </mxGraphModel>
  </diagram>
</mxfile>
